# xmcd CD database file
#
# Track frame offsets:
#	150
#	10325
#	23407
#	35385
#	47795
#	57150
#	69455
#	82477
#	92872
#	106032
#	117980
#	130715
#	153350
#	184655
#	195397
#	209422
#	222135
#	239337
#	264590
#	277332
#
# Disc length: 4077 seconds
#
# Revision: 3
# Processed by: cddbd v1.5.2PL0 Copyright (c) Steve Scherf et al.
# Submitted via: CDex 1.51
#
DISCID=1b0feb14
DTITLE=Various Artist - Living The Blues - Chicago Blues Classics
DYEAR=1998
DGENRE=Blues
TTITLE0=Billy Boy Arnold - I Ain't Got You
TTITLE1=Willie Mabon - The Seventh Son
TTITLE2=Willie Cobbs - You Don't Love Me
TTITLE3=Little Walter - Last Night
TTITLE4=Jimmy Rogers - If It Ain't Me (Who Are Your Thinking Of)
TTITLE5=Memphis Slim - Mother Earth
TTITLE6=Jimmy Reed - I Can't Stand To See You Go
TTITLE7=Big Walter ''Shakey'' Horton - Need My Baby
TTITLE8=Howlin' Wolf - I Ain't Superstitious
TTITLE9=Otis Rush - Homework
TTITLE10=Ricky Allen - Cut You A-Loose
TTITLE11=Otis Spann - Looks Like Twins
TTITLE12=James Cotton - Creeper Creeps Again
TTITLE13=A. C. Reed And Earl Hooker - This Little Voice
TTITLE14=Muddy Waters - Close To You
TTITLE15=Koko Taylor - Trying To Make A Living
TTITLE16=Jimmy Johnson - I Can't Survive
TTITLE17=Buddy Guy - One Room Country Shack
TTITLE18=J. B. Hutto - That's The Truth
TTITLE19=Luther Allison - Luther's Blues
EXTD=YEAR: 1998
EXTT0=
EXTT1=
EXTT2=
EXTT3=
EXTT4=
EXTT5=
EXTT6=
EXTT7=
EXTT8=
EXTT9=
EXTT10=
EXTT11=
EXTT12=
EXTT13=
EXTT14=
EXTT15=
EXTT16=
EXTT17=
EXTT18=
EXTT19=
PLAYORDER=
